<svg width="122" height="56" viewBox="0 0 122 56" fill="none" xmlns="http://www.w3.org/2000/svg">
<path fill-rule="evenodd" clip-rule="evenodd" d="M117.975 26.2925H105.715C103.515 26.2925 101.69 28.2351 101.69 30.5763V41.784C101.69 44.1252 103.515 46.0678 105.715 46.0678H117.975C120.175 46.0678 122 44.1252 122 41.784V30.5763C122 28.2351 120.175 26.2925 117.975 26.2925ZM73.0034 11.5481H71.5059V11.2492C71.9271 11.2492 72.1611 11.1496 71.9739 10.8009C71.6931 10.2032 72.9099 10.253 73.097 10.3526C73.3778 10.6017 73.1906 11.2492 73.0034 11.5481ZM70.9444 11.9466H72.7695C72.5823 12.2953 72.0207 13.3911 71.6463 13.3911C71.4591 13.1421 70.9912 12.4447 70.9444 11.9466ZM105.808 30.5763H117.929V41.784H105.808V30.5763ZM80.9122 30.5763H97.7591C97.7591 28.2351 95.934 26.2925 93.7346 26.2925H80.7718C78.5723 26.2925 76.7472 28.2351 76.7472 30.5763V41.784C76.7472 44.1252 78.5723 46.0678 80.7718 46.0678H93.7346C95.934 46.0678 97.7591 44.1252 97.7591 41.784V34.4118H84.0944C84.0944 36.2549 85.4983 37.6994 87.183 37.6994H93.9217V41.784H80.9122V30.5763ZM28.2654 30.5763H44.3636C44.3636 28.2351 42.5386 26.2925 40.3391 26.2925H27.8911C25.6916 26.2925 23.8665 28.2351 23.8665 30.5763V34.0631C23.8665 36.4043 25.6916 38.347 27.8911 38.347H40.3859V41.8338H23.8665C23.8665 44.175 25.6916 46.1177 27.8911 46.1177H40.7603C42.9597 46.1177 44.7848 44.175 44.7848 41.8338V38.347C44.7848 36.0058 42.9597 34.0631 40.7603 34.0631H28.2654V30.5763ZM5.10088 30.5763H20.3099C20.3099 28.2351 18.4848 26.2925 16.2854 26.2925H4.02455C1.82509 26.2925 0 28.2351 0 30.5763V41.784C0 44.1252 1.82509 46.0678 4.02455 46.0678H16.2854C18.4848 46.0678 20.3099 44.1252 20.3099 41.784H5.10088V30.5763ZM76.8408 9.60542C76.7472 9.65523 76.6536 9.70503 76.56 9.70503C75.9985 10.5518 76.326 10.4522 75.2965 11.1994C75.2965 12.6439 75.3433 12.7934 75.6709 14.0885C75.6709 14.1383 75.6709 14.1383 75.6709 14.1881C75.6709 14.2379 75.6241 14.2379 75.6241 14.2379C75.3901 14.2877 75.0157 14.3874 74.8285 14.4372C74.8285 14.487 74.9221 15.284 74.8285 15.9315C74.6413 16.878 72.4887 18.9701 72.0207 19.1195C71.3187 19.2689 70.5232 18.6214 69.2597 18.0237C68.9321 17.8742 67.7622 17.0772 67.1538 16.8282C66.639 16.6289 66.1711 17.924 66.7794 18.2727C67.0602 18.4222 67.5282 18.6712 67.6686 19.0697C68.0898 20.2652 67.6218 24.8479 66.7326 25.7445C66.3115 25.7445 65.9371 25.346 65.6563 25.4457C65.0947 25.7943 65.4691 27.5876 65.6563 27.8864C69.0725 31.6223 68.6981 34.4118 70.1488 36.5039C70.804 36.5039 70.3828 37.2511 70.8976 38.1477C71.038 38.596 70.8508 39.3432 70.804 39.6421C70.804 40.0406 70.804 40.3893 70.804 40.7878C70.7572 40.8874 70.7104 41.0368 70.7104 41.1365C70.7104 41.4851 70.7104 41.784 70.7104 42.1327C70.6168 42.6308 70.4764 43.2784 70.3828 43.7267C70.1956 44.6731 70.9444 45.4203 70.4764 46.3169C70.4764 46.8648 70.4764 46.7652 70.1488 47.2135C70.1488 48.0603 69.9616 49.9034 70.1488 50.5509C70.2892 50.9992 71.7867 52.8921 72.2079 53.0914C73.1438 53.5397 74.501 53.44 74.033 54.9842C71.3188 55.8808 69.6341 54.4861 68.1834 54.4861L68.1366 54.7351C67.2006 54.7351 66.4987 54.4861 66.2647 54.4363C66.2647 54.1872 66.5454 52.1449 66.6858 51.7962C66.7794 51.6468 66.873 51.4476 67.0134 51.2981C67.107 50.9494 66.9198 48.409 66.873 47.7117C66.3115 47.2633 66.1711 45.8686 66.1711 45.1214C65.9839 44.5237 65.9839 43.8263 65.9839 43.0791C65.9839 42.7304 65.7499 42.1825 65.8903 41.7342C65.9839 41.4353 66.3115 41.2859 66.3583 41.0368C66.3583 40.738 66.3583 40.4889 66.3583 40.19C66.4986 39.2934 66.4519 38.8949 65.9371 38.347C64.6736 38.347 64.4864 38.4466 63.8312 37.3009C63.5972 36.9522 61.8657 33.9635 61.6785 33.9137C60.2278 33.2163 60.5086 33.5152 59.8535 32.2699C59.8067 32.2699 59.4323 32.4193 59.1047 32.9673C58.5899 33.8141 57.654 36.5039 57.3732 37.4504C57.2328 37.9983 57.3732 38.5462 57.1392 38.9945C56.9988 39.2934 56.4373 39.393 56.3437 39.6421C55.8289 40.6383 56.2033 40.5387 55.2206 41.2361C55.0334 41.4851 55.0334 41.8338 54.893 42.1327C54.7994 42.2323 54.7526 42.332 54.659 42.4814C54.4718 42.8799 54.8462 43.5274 54.7526 43.7765C54.5654 44.3742 54.3782 45.0218 54.1442 45.5697C53.6763 46.7154 53.7698 48.2098 53.3019 48.9071C53.0679 49.2558 52.5063 48.9071 52.0851 49.206C52.0383 49.4551 51.3832 51.0491 51.2428 51.4974C51.2428 52.3442 51.2428 53.191 51.2428 54.0876C51.3832 54.5359 51.7108 54.9344 51.6172 55.4823C51.5236 56.0801 49.6049 56.0801 48.5754 55.8808C47.8734 55.7812 47.6862 55.2333 47.6862 54.5857C47.6862 53.8385 49.0901 49.0068 49.0433 48.7079C47.967 47.4128 49.3241 46.1177 49.7453 44.9222C49.9325 44.3244 49.8389 43.5274 50.0261 42.9795C50.4005 42.2323 50.7748 41.5349 51.1492 40.7878C51.8512 40.0904 51.5236 40.0406 51.898 39.4428C52.2255 38.8949 52.5999 38.5462 52.3659 37.6994C51.898 36.0556 52.8807 33.7145 52.9743 31.971C52.7871 31.7718 52.2255 31.8216 52.1319 31.3235C51.9916 30.2276 52.5063 28.3348 52.8339 28.1853C52.9743 28.0857 53.1615 28.1853 53.2551 28.0857C53.2551 27.2887 52.5063 22.8056 53.0679 22.5566C53.4423 22.4071 54.2378 22.3573 54.3782 22.2577C54.3782 22.0584 54.2378 21.6599 54.0974 21.6599C53.8634 21.6101 53.3487 21.5105 52.9275 21.4109C51.664 21.112 52.8339 15.8319 52.8339 15.7821C53.1615 15.284 54.7994 15.9315 54.9866 15.1345C55.5013 14.3874 54.5654 11.5979 56.3905 8.11105C56.9988 6.96538 58.2156 5.76988 59.5727 6.268C60.0406 6.41744 59.7599 7.16462 60.5554 6.36763C60.5554 5.91932 60.3682 5.57062 60.2746 5.17213C58.9175 0.888289 63.5036 -1.45288 66.7326 0.987917C67.107 1.13735 67.2942 1.23697 67.575 1.43622C67.7622 2.43246 68.6513 4.12608 67.7622 5.27176C67.3878 5.37138 66.9198 5.57063 66.639 5.76988C66.639 6.16838 66.6858 6.51706 66.7326 6.76612C66.7794 6.96537 66.9198 7.06499 66.5922 7.21443C66.5454 7.21443 66.5922 7.36386 66.5922 7.41367C67.341 7.56311 68.1366 7.26425 68.6513 7.065H69.2597V6.268H69.4001H69.5405V5.62045H69.8213V6.71631H70.57V7.065H81.6609V7.66273H82.1289V5.42119H82.55V7.26424H83.486V8.3103H86.4342V8.01142H86.9022V8.16085H88.3061V9.00766H86.9022V9.15709H86.4342V8.85824H83.486V9.15709C83.0648 9.15709 82.6436 9.15709 82.1757 9.15709V8.95785H81.6141V9.60542H76.8408Z" fill="white"/>
</svg>
